<?xml version="1.0" encoding="UTF-8"?>
<svg version="1.1" xmlns="http://www.w3.org/2000/svg" width="273" height="151">
<path d="M0 0 C2.52201358 2.52201358 2.44134366 3.81506776 2.86962891 7.32006836 C3.00962311 8.43139633 3.14961731 9.5427243 3.29385376 10.68772888 C3.43664764 11.89292679 3.57944153 13.09812469 3.7265625 14.33984375 C3.87910492 15.57287735 4.03164734 16.80591095 4.18881226 18.0763092 C4.51040305 20.68776565 4.82881808 23.29936356 5.14160156 25.91186523 C5.5424343 29.2597284 5.95221952 32.60641102 6.36556435 35.95275021 C7.04843336 41.48431935 7.72533086 47.01665108 8.38916016 52.55053711 C8.50748199 53.53267685 8.62580383 54.51481659 8.74771118 55.52671814 C9 58 9 58 9 61 C10.91936213 60.57448104 12.83542874 60.13408062 14.75 59.6875 C15.81734375 59.44386719 16.8846875 59.20023438 17.984375 58.94921875 C20.94152203 58.01840693 22.61719192 56.9159065 25 55 C25.66 55 26.32 55 27 55 C27.66 53.68 28.32 52.36 29 51 C29.66 51 30.32 51 31 51 C31.125 57.625 31.125 57.625 30 61 C35.94 60.505 35.94 60.505 42 60 C42.33 58.35 42.66 56.7 43 55 C46.80284409 47.67064306 53.11926787 39.13699046 61 36 C63.87159565 35.52599381 66.03162248 35.71729738 69 36 C72.29011311 39.07784775 72.96138591 42.24058962 73.1875 46.6875 C73.13242305 51.65360481 72.2371387 56.5257226 70 61 C70.80824219 60.7834375 71.61648437 60.566875 72.44921875 60.34375 C73.51785156 60.0653125 74.58648437 59.786875 75.6875 59.5 C76.74324219 59.2215625 77.79898438 58.943125 78.88671875 58.65625 C81.71142672 58.0608285 84.12836708 57.87213508 87 58 C86.62746094 57.13117188 86.25492187 56.26234375 85.87109375 55.3671875 C85.39800781 54.21476562 84.92492187 53.06234375 84.4375 51.875 C83.96183594 50.73804688 83.48617187 49.60109375 82.99609375 48.4296875 C81.91459462 44.70593755 81.97041367 42.70235084 83 39 C84.9375 35.625 84.9375 35.625 87 33 C87.66 33 88.32 33 89 33 C89 32.01 89 31.02 89 30 C93.76954412 31.84069826 94.8990854 34.96575971 96.94140625 39.42578125 C99.42762602 45.47160719 99.25571654 48.91790344 96.875 54.9375 C95.94453042 56.97131329 94.98738714 58.99320236 94 61 C93.62617187 61.78375 93.25234375 62.5675 92.8671875 63.375 C89.2477438 70.05704991 83.75584353 72.75699464 76.71875 75.0859375 C72.72474603 76.06765696 68.96676418 76.51021798 64.875 76.75 C64.18535156 76.80542969 63.49570313 76.86085938 62.78515625 76.91796875 C58.616875 77.18097694 55.75348487 76.79232149 52 75 C48.4431191 73.75259688 45.86546484 74.22966526 42.1875 74.9375 C34.72046852 76.20180419 27.55058981 76.18798149 20 76 C20 75.34 20 74.68 20 74 C18.87980469 74.28875 17.75960937 74.5775 16.60546875 74.875 C15.13286011 75.25018691 13.66020122 75.62517665 12.1875 76 C11.44951172 76.19078125 10.71152344 76.3815625 9.95117188 76.578125 C6.89464659 77.35262914 4.16626522 78 1 78 C-1.70646689 66.74817701 -2.96755222 55.28377581 -4.41625977 43.81542969 C-4.76141165 41.09578343 -5.12216422 38.37888878 -5.49633789 35.66308594 C-6.03776697 31.7323063 -6.53415435 27.79651266 -7.02734375 23.859375 C-7.19999252 22.64473572 -7.3726413 21.43009644 -7.55052185 20.1786499 C-8.52557232 11.94742944 -8.52557232 11.94742944 -6.94314575 9.09484863 C-5.56079102 7.69628906 -5.56079102 7.69628906 -3 6 C-2.34 7.65 -1.68 9.3 -1 11 C-0.67 7.37 -0.34 3.74 0 0 Z M52.8125 53.8125 C50.81345992 55.95666241 50.81345992 55.95666241 50 59 C50.33 59.33 50.66 59.66 51 60 C52.66949355 59.96232046 54.33759288 59.84571204 56 59.6875 C56.9075 59.60886719 57.815 59.53023437 58.75 59.44921875 C59.4925 59.30097656 60.235 59.15273437 61 59 C61.33 58.34 61.66 57.68 62 57 C60.89858275 54.30305165 60.89858275 54.30305165 59 52 C55.03987612 51.57465476 55.03987612 51.57465476 52.8125 53.8125 Z " fill="#FEFEFE" transform="translate(31,29)"/>
<path d="M0 0 C1.24136719 0.12761719 1.24136719 0.12761719 2.5078125 0.2578125 C5.21923675 0.96475149 6.73166801 2.10342367 8.875 3.875 C9.555625 4.205 10.23625 4.535 10.9375 4.875 C13.09799055 5.9900919 14.32247758 7.00423198 15.875 8.875 C16.99894064 13.62364922 16.24886333 17.88128241 13.8125 22.0625 C6.06343987 32.97179135 -5.27807355 37.06722893 -17.88012695 39.91235352 C-22.97166139 41.16126181 -25.01687511 42.45586508 -28.125 46.875 C-29.115 46.875 -30.105 46.875 -31.125 46.875 C-30.795 45.225 -30.465 43.575 -30.125 41.875 C-33.68763276 42.52010237 -37.25008236 43.1662108 -40.8125 43.8125 C-42.32360352 44.08610352 -42.32360352 44.08610352 -43.86523438 44.36523438 C-44.84169922 44.54248047 -45.81816406 44.71972656 -46.82421875 44.90234375 C-47.71971436 45.06468506 -48.61520996 45.22702637 -49.5378418 45.39428711 C-52.07183182 45.86512096 -54.59895107 46.36342035 -57.125 46.875 C-57.29515625 47.45507812 -57.4653125 48.03515625 -57.640625 48.6328125 C-59.91468451 55.9630256 -63.05094293 61.96406025 -69.125 66.875 C-81.61695528 72.97927134 -100.43950528 77.23277937 -114.125 73.875 C-112.13785715 68.67714948 -110.00912413 63.93864247 -106.125 59.875 C-102.91299618 58.44603767 -99.59422798 58.28942748 -96.125 57.875 C-93.11104114 57.31221272 -90.11845253 56.66247783 -87.125 56 C-86.34278076 55.82903809 -85.56056152 55.65807617 -84.75463867 55.48193359 C-78.93526015 54.16588607 -73.567992 52.32607251 -68.125 49.875 C-67.135 49.545 -66.145 49.215 -65.125 48.875 C-63.93304184 46.42297179 -63.15875359 43.99240379 -62.40625 41.375 C-60.94925392 36.71261256 -59.51514999 33.4839631 -55.1875 31 C-50.64389882 29.01387494 -46.13467382 28.38144741 -41.27246094 27.67504883 C-32.75878087 26.68773409 -32.75878087 26.68773409 -25.5625 22.56640625 C-23.89020776 19.83527067 -23.89020776 19.83527067 -22.5859375 16.90234375 C-20.86511015 13.3364582 -18.71654803 10.80534922 -16.0625 7.875 C-14.86947266 6.5446875 -14.86947266 6.5446875 -13.65234375 5.1875 C-9.44547898 1.33825125 -5.74933485 -0.70289674 0 0 Z M-17.125 22.875 C-13.13535968 24.20488011 -11.01073063 23.22783549 -7 22.0625 C-5.73929688 21.70542969 -4.47859375 21.34835938 -3.1796875 20.98046875 C-0.01669759 20.23244728 -0.01669759 20.23244728 0.875 17.875 C-6.97936218 13.04154635 -11.41742346 17.19639593 -17.125 22.875 Z " fill="#FEFEFE" transform="translate(240.125,60.125)"/>
<path d="M0 0 C0.86242994 6.67013996 1.71595747 13.34137692 2.56347656 20.01342773 C2.85247093 22.2802879 3.14345832 24.54689494 3.43652344 26.81323242 C3.85883842 30.08186423 4.27383852 33.3513569 4.6875 36.62109375 C4.81874268 37.62458359 4.94998535 38.62807343 5.08520508 39.66197205 C7.0504 55.3724105 7.0504 55.3724105 4.06640625 59.99609375 C3.24011719 60.80175781 2.41382813 61.60742188 1.5625 62.4375 C0.73878906 63.26121094 -0.08492187 64.08492188 -0.93359375 64.93359375 C-1.61550781 65.61550781 -2.29742187 66.29742187 -3 67 C-3.495 67.99 -3.495 67.99 -4 69 C-4.66 69 -5.32 69 -6 69 C-6.55747301 63.65190065 -7.10845488 58.30318131 -7.65405273 52.95385742 C-7.83954982 51.14346341 -8.02666056 49.33323384 -8.21557617 47.52319336 C-8.7669078 42.23482037 -9.28627931 36.94493515 -9.76000977 31.64901733 C-9.92117911 29.87002665 -10.08990985 28.09170617 -10.26586914 26.31411743 C-10.51586556 23.73177888 -10.72929714 21.14880751 -10.93359375 18.5625 C-11.05455666 17.40387703 -11.05455666 17.40387703 -11.17796326 16.22184753 C-11.45605495 12.18201597 -11.24857392 9.78706669 -8.74194336 6.5144043 C-2.43238344 0 -2.43238344 0 0 0 Z " fill="#FEFEFE" transform="translate(220,9)"/>
<path d="M0 0 C4.55235431 1.33892774 8.4306354 3.96242706 11 8 C10.74933975 11.40084988 9.17258647 13.27713838 6.9375 15.75 C6.38964844 16.36359375 5.84179688 16.9771875 5.27734375 17.609375 C4.85582031 18.06828125 4.43429688 18.5271875 4 19 C2.05859375 18.625 2.05859375 18.625 0 18 C-0.4640625 17.01 -0.4640625 17.01 -0.9375 16 C-1.85191283 13.75111035 -1.85191283 13.75111035 -4.4375 13.0625 C-7.04414058 12.71395985 -7.04414058 12.71395985 -8.6875 14.4375 C-9.3371875 15.2109375 -9.3371875 15.2109375 -10 16 C-10.66 16 -11.32 16 -12 16 C-12.99 18.475 -12.99 18.475 -14 21 C-17.23861303 19.55575365 -19.61969163 17.74227753 -22.25 15.375 C-22.95640625 14.74335937 -23.6628125 14.11171875 -24.390625 13.4609375 C-24.92171875 12.97882812 -25.4528125 12.49671875 -26 12 C-25.59007813 11.52949219 -25.18015625 11.05898438 -24.7578125 10.57421875 C-24.21898438 9.95160156 -23.68015625 9.32898437 -23.125 8.6875 C-22.59132813 8.07261719 -22.05765625 7.45773438 -21.5078125 6.82421875 C-19.8359553 4.86501788 -19.8359553 4.86501788 -18 2 C-13.75177626 2.47202486 -11.80010291 4.96655518 -9 8 C-5.99615946 7.3045656 -5.99615946 7.3045656 -3 6 C-2.1762044 4.03871245 -2.1762044 4.03871245 -2 2 C-1.34 1.34 -0.68 0.68 0 0 Z " fill="#FEFEFE" transform="translate(96,38)"/>
<path d="M0 0 C-0.14295891 1.39613065 -0.28951558 2.79189308 -0.4375 4.1875 C-0.51871094 4.96480469 -0.59992188 5.74210937 -0.68359375 6.54296875 C-1.00597621 9.04640786 -1.50498105 11.52490524 -2 14 C-14.87 14.99 -14.87 14.99 -28 16 C-25.75 5.875 -25.75 5.875 -24 2 C-20.37513341 1.66520515 -16.75008583 1.33241184 -13.125 1 C-12.09246094 0.90460938 -11.05992188 0.80921875 -9.99609375 0.7109375 C-9.00996094 0.62070313 -8.02382812 0.53046875 -7.0078125 0.4375 C-5.64100342 0.31181641 -5.64100342 0.31181641 -4.24658203 0.18359375 C-2 0 -2 0 0 0 Z " fill="#FEFEFE" transform="translate(131,106)"/>
<path d="M0 0 C3.49844386 0.63389235 5.84086876 2.05177694 8.75 4.0625 C9.94882812 4.88427734 9.94882812 4.88427734 11.171875 5.72265625 C11.77515625 6.14417969 12.3784375 6.56570312 13 7 C11.27687791 11.66209202 8.95555839 15.03332953 6 19 C2.04 16.69 -1.92 14.38 -6 12 C-4.875 6.375 -4.875 6.375 -2.4375 3.1875 C-1.98246094 2.58292969 -1.52742188 1.97835937 -1.05859375 1.35546875 C-0.53458984 0.68451172 -0.53458984 0.68451172 0 0 Z " fill="#FEFEFE" transform="translate(53,52)"/>
</svg>
